<?xml version="1.0" encoding="UTF-8"?>
<svg id="Layer_1" data-name="Layer 1" xmlns="http://www.w3.org/2000/svg" viewBox="0 0 526.15 504.65">
  <defs>
    <style>
      .cls-1 {
        fill: #72acd1;
      }

      .cls-2 {
        fill: #aa2b37;
      }
    </style>
  </defs>
  <path class="cls-2" d="M352.87,407.85c3.97,0,7.19,3.22,7.19,7.19v24.92c0,12.72,10.35,23.08,23.08,23.08,12.72,0,23.08-10.35,23.08-23.08v-24.92c0-3.97,3.22-7.19,7.19-7.19s7.19,3.22,7.19,7.19v24.92c0,20.65-16.8,37.45-37.45,37.45-20.65,0-37.45-16.8-37.45-37.45v-24.92c0-3.97,3.22-7.19,7.19-7.19Z"/>
  <path class="cls-2" d="M237.63,73.62c3.95,0,7.16,3.21,7.16,7.16v24.83c0,12.68,10.31,22.99,22.99,22.99,12.68,0,22.99-10.31,22.99-22.99v-24.83c0-3.95,3.2-7.16,7.16-7.16s7.16,3.21,7.16,7.16v24.83c0,20.57-16.74,37.31-37.31,37.31s-37.31-16.74-37.31-37.31v-24.83c0-3.95,3.2-7.16,7.16-7.16Z"/>
  <path class="cls-2" d="M239.18,504.46c3.26,0,6.19-2.17,6.94-5.34,2.42-10.16,11.57-17.74,22.45-17.74h24.62c3.94,0,7.37-3.03,7.48-6.97.12-4.07-3.14-7.41-7.18-7.41h-24.92c-17.57,0-32.35,12.16-36.37,28.51-1.12,4.54,2.3,8.94,6.97,8.94h0Z"/>
  <path class="cls-2" d="M461.99,467.01c3.26,0,6.19,2.17,6.94,5.34,2.42,10.16,11.57,17.74,22.45,17.74h24.62c3.94,0,7.37,3.03,7.48,6.97.12,4.07-3.14,7.41-7.18,7.41h-24.92c-17.57,0-32.35-12.16-36.37-28.51-1.12-4.54,2.3-8.94,6.97-8.94h0Z"/>
  <path class="cls-2" d="M353.85,37.31c3.25,0,6.17-2.16,6.92-5.32,2.41-10.12,11.52-17.67,22.37-17.67h24.53c3.92,0,7.34-3.02,7.46-6.94S411.99,0,407.96,0h-24.83c-17.5,0-32.23,12.11-36.23,28.4-1.11,4.53,2.29,8.91,6.95,8.91h0Z"/>
  <path class="cls-1" d="M269.49,324.29c0-3.26-2.17-6.19-5.34-6.94-10.16-2.42-17.74-11.57-17.74-22.45v-24.62c0-3.94-3.03-7.37-6.97-7.48-4.07-.12-7.41,3.14-7.41,7.18v24.92c0,17.57,12.16,32.35,28.51,36.37,4.54,1.12,8.94-2.3,8.94-6.97h0Z"/>
  <path class="cls-2" d="M263.25,288.85c0-3.25,2.16-6.17,5.32-6.92,10.12-2.41,17.67-11.52,17.67-22.37v-24.53c0-3.92,3.02-7.34,6.94-7.46,4.05-.12,7.38,3.13,7.38,7.16v24.83c0,17.5-12.11,32.23-28.4,36.23-4.53,1.11-8.91-2.29-8.91-6.95h0Z"/>
  <path class="cls-1" d="M265.93,417.33c-18.69,0-33.9-15.21-33.9-33.9s15.21-33.89,33.9-33.89,33.9,15.2,33.9,33.89-15.21,33.9-33.9,33.9ZM265.93,363.92c-10.76,0-19.52,8.76-19.52,19.52s8.76,19.52,19.52,19.52,19.52-8.76,19.52-19.52-8.76-19.52-19.52-19.52Z"/>
  <path class="cls-1" d="M381.35,179.66c-18.69,0-33.9-15.21-33.9-33.9s15.21-33.89,33.9-33.89,33.9,15.2,33.9,33.89-15.21,33.9-33.9,33.9ZM381.35,126.24c-10.76,0-19.52,8.76-19.52,19.52s8.76,19.52,19.52,19.52,19.52-8.76,19.52-19.52-8.76-19.52-19.52-19.52Z"/>
  <path class="cls-2" d="M355.28,231.6c3.25,0,6.02-2.2,6.91-5.32,2.32-8.15,9.83-14.13,18.71-14.13,8.88,0,16.39,5.98,18.71,14.13.89,3.12,3.67,5.32,6.91,5.32h0c4.75,0,8.18-4.55,6.89-9.12-3.99-14.2-17.06-24.65-32.52-24.65-15.46,0-28.53,10.44-32.52,24.65-1.29,4.58,2.14,9.12,6.89,9.12h0Z"/>
  <path class="cls-1" d="M242.07,35.67c3.26,0,6.05-2.21,6.94-5.34,2.33-8.18,9.87-14.18,18.78-14.18,8.91,0,16.45,6,18.78,14.18.89,3.13,3.68,5.34,6.94,5.34h0c4.77,0,8.21-4.56,6.92-9.16-4-14.26-17.12-24.74-32.64-24.74-15.52,0-28.63,10.48-32.64,24.74-1.29,4.59,2.15,9.16,6.92,9.16h0Z"/>
  <path class="cls-1" d="M293.52,204.88c-3.97,0-7.19-3.22-7.19-7.19v-27.59c0-3.97,3.22-7.19,7.19-7.19s7.19,3.22,7.19,7.19v27.59c0,3.97-3.22,7.19-7.19,7.19Z"/>
  <path class="cls-1" d="M354.19,98.63c-3.97,0-7.19-3.22-7.19-7.19v-27.59c0-3.97,3.22-7.19,7.19-7.19s7.19,3.22,7.19,7.19v27.59c0,3.97-3.22,7.19-7.19,7.19Z"/>
  <path class="cls-1" d="M345.68,374.28c0-3.97,3.22-7.19,7.19-7.19h27.59c3.97,0,7.19,3.22,7.19,7.19,0,3.97-3.22,7.19-7.19,7.19h-27.59c-3.97,0-7.19-3.22-7.19-7.19Z"/>
  <circle class="cls-2" cx="407.96" cy="64.91" r="7.16"/>
  <circle class="cls-1" cx="408.51" cy="91.45" r="7.19"/>
  <circle class="cls-1" cx="408.51" cy="37.56" r="7.19"/>
  <circle class="cls-2" cx="294.42" cy="445.42" r="7.19"/>
  <circle class="cls-1" cx="266.34" cy="445.42" r="7.19"/>
  <circle class="cls-2" cx="395.8" cy="497.28" r="7.19"/>
  <circle class="cls-1" cx="367.72" cy="497.28" r="7.19"/>
  <circle class="cls-2" cx="352.53" cy="254.63" r="7.16"/>
  <circle class="cls-2" cx="409.28" cy="254.63" r="7.16"/>
  <circle class="cls-1" cx="381.76" cy="255.6" r="7.19"/>
  <circle class="cls-2" cx="239.22" cy="168.09" r="7.16"/>
  <circle class="cls-2" cx="239.22" cy="224.85" r="7.16"/>
  <circle class="cls-1" cx="239.22" cy="197.33" r="7.19"/>
  <path class="cls-1" d="M407.96,315.65h0c-3.19,0-6.05,2.08-6.89,5.15-2.34,8.56-10.38,14.79-19.77,14.35-9.93-.47-18.1-8.64-18.57-18.57-.44-9.38,5.79-17.42,14.35-19.76,3.07-.84,5.15-3.7,5.15-6.89h0c0-4.73-4.5-8.21-9.06-6.95-15.48,4.3-26.54,19.33-24.62,36.54,1.73,15.55,14.25,28.07,29.8,29.8,17.21,1.92,32.24-9.14,36.54-24.62,1.27-4.56-2.22-9.06-6.95-9.06Z"/>
  <path class="cls-2" d="M517.99,71.06c-3.95,0-7.16-3.21-7.16-7.16v-24.83c0-12.68-10.31-22.99-22.99-22.99s-22.99,10.31-22.99,22.99v24.83c0,3.95-3.2,7.16-7.16,7.16s-7.16-3.21-7.16-7.16v-24.83c0-20.57,16.74-37.31,37.31-37.31s37.31,16.74,37.31,37.31v24.83c0,3.95-3.2,7.16-7.16,7.16Z"/>
  <path class="cls-1" d="M465.17,408.17c3.26,0,6.05-2.21,6.94-5.34,2.33-8.18,9.87-14.18,18.78-14.18,8.91,0,16.45,6,18.78,14.18.89,3.13,3.68,5.34,6.94,5.34h0c4.77,0,8.21-4.56,6.92-9.16-4-14.26-17.12-24.74-32.64-24.74-15.52,0-28.63,10.48-32.64,24.74-1.29,4.59,2.15,9.16,6.92,9.16h0Z"/>
  <path class="cls-1" d="M522.71,172.56c-2.81,2.81-7.36,2.81-10.16,0l-59.19-59.21c-2.81-2.81-2.81-7.36,0-10.16,2.81-2.81,7.36-2.81,10.16,0l59.19,59.21c2.81,2.81,2.81,7.36,0,10.16Z"/>
  <path class="cls-1" d="M517.96,71.33c-3.97,0-7.19-3.22-7.19-7.19v-27.59c0-3.97,3.22-7.19,7.19-7.19s7.19,3.22,7.19,7.19v27.59c0,3.97-3.22,7.19-7.19,7.19Z"/>
  <path class="cls-1" d="M518.72,471.35c-3.97,0-7.19-3.22-7.19-7.19v-27.59c0-3.97,3.22-7.19,7.19-7.19s7.19,3.22,7.19,7.19v27.59c0,3.97-3.22,7.19-7.19,7.19Z"/>
  <path class="cls-1" d="M454.8,343.43c0-3.97,3.22-7.19,7.19-7.19h27.59c3.97,0,7.19,3.22,7.19,7.19s-3.22,7.19-7.19,7.19h-27.59c-3.97,0-7.19-3.22-7.19-7.19Z"/>
  <circle class="cls-2" cx="457.7" cy="166.84" r="7.16"/>
  <circle class="cls-1" cx="458.44" cy="138.58" r="7.19"/>
  <circle class="cls-1" cx="463.05" cy="445.42" r="7.19"/>
  <circle class="cls-2" cx="461.99" cy="307.55" r="7.19"/>
  <circle class="cls-2" cx="518.96" cy="307.55" r="7.19"/>
  <circle class="cls-1" cx="490.88" cy="307.55" r="7.19"/>
  <circle class="cls-2" cx="517.99" cy="136.64" r="7.16"/>
  <circle class="cls-1" cx="518.96" cy="108.27" r="7.19"/>
  <path class="cls-1" d="M488.7,215.26h0c0,3.19,2.08,6.05,5.15,6.89,8.56,2.34,14.79,10.38,14.35,19.77-.47,9.93-8.64,18.1-18.57,18.57-9.38.44-17.42-5.79-19.76-14.35-.84-3.07-3.7-5.15-6.89-5.15h0c-4.73,0-8.21,4.5-6.95,9.06,4.3,15.48,19.33,26.54,36.54,24.62,15.55-1.73,28.07-14.25,29.8-29.8,1.92-17.21-9.14-32.24-24.62-36.54-4.56-1.27-9.06,2.22-9.06,6.95Z"/>
  <path class="cls-2" d="M68.45,69.7c-3.95,0-7.16-3.21-7.16-7.16v-24.83c0-12.68-10.31-22.99-22.99-22.99s-22.99,10.31-22.99,22.99v24.83c0,3.95-3.2,7.16-7.16,7.16s-7.16-3.21-7.16-7.16v-24.83C1,17.14,17.73.4,38.3.4s37.31,16.74,37.31,37.31v24.83c0,3.95-3.2,7.16-7.16,7.16Z"/>
  <path class="cls-2" d="M188.45,265.76c-3.95,0-7.16-3.21-7.16-7.16v-24.83c0-12.68-10.31-22.99-22.99-22.99s-22.99,10.31-22.99,22.99v24.83c0,3.95-3.2,7.16-7.16,7.16s-7.16-3.21-7.16-7.16v-24.83c0-20.57,16.74-37.31,37.31-37.31s37.31,16.74,37.31,37.31v24.83c0,3.95-3.2,7.16-7.16,7.16Z"/>
  <path class="cls-2" d="M158.41,411.16c0-3.25-2.16-6.17-5.32-6.92-10.12-2.41-17.67-11.52-17.67-22.37v-24.53c0-3.92-3.02-7.34-6.94-7.46-4.05-.12-7.38,3.13-7.38,7.16v24.83c0,17.5,12.11,32.23,28.4,36.23,4.53,1.11,8.91-2.29,8.91-6.95h0Z"/>
  <path class="cls-1" d="M161.46,504.65c-18.69,0-33.9-15.21-33.9-33.9s15.21-33.89,33.9-33.89,33.9,15.2,33.9,33.89-15.21,33.9-33.9,33.9ZM161.46,451.24c-10.76,0-19.52,8.76-19.52,19.52s8.76,19.52,19.52,19.52,19.52-8.76,19.52-19.52-8.76-19.52-19.52-19.52Z"/>
  <path class="cls-1" d="M13.92,406.8c3.26,0,6.05-2.21,6.94-5.34,2.33-8.18,9.87-14.18,18.78-14.18,8.91,0,16.45,6,18.78,14.18.89,3.13,3.68,5.34,6.94,5.34h0c4.77,0,8.21-4.56,6.92-9.16-4-14.26-17.12-24.74-32.64-24.74s-28.63,10.48-32.64,24.74c-1.29,4.59,2.15,9.16,6.92,9.16h0Z"/>
  <path class="cls-1" d="M161.46,300.17c0,3.26,2.21,6.05,5.34,6.94,8.18,2.33,14.18,9.87,14.18,18.78s-6,16.45-14.18,18.78c-3.13.89-5.34,3.68-5.34,6.94h0c0,4.77,4.56,8.21,9.16,6.92,14.26-4,24.74-17.12,24.74-32.64,0-15.52-10.48-28.63-24.74-32.64-4.59-1.29-9.16,2.15-9.16,6.92h0Z"/>
  <path class="cls-1" d="M71.46,171.18c-2.81,2.81-7.36,2.81-10.16,0L2.1,111.98c-2.81-2.81-2.81-7.36,0-10.16,2.81-2.81,7.36-2.81,10.16,0l59.19,59.21c2.81,2.81,2.81,7.36,0,10.16Z"/>
  <path class="cls-1" d="M68.71,69.96c-3.97,0-7.19-3.22-7.19-7.19v-27.59c0-3.97,3.22-7.19,7.19-7.19s7.19,3.22,7.19,7.19v27.59c0,3.97-3.22,7.19-7.19,7.19Z"/>
  <path class="cls-1" d="M67.47,478.83c-3.97,0-7.19-3.22-7.19-7.19v-27.59c0-3.97,3.22-7.19,7.19-7.19s7.19,3.22,7.19,7.19v27.59c0,3.97-3.22,7.19-7.19,7.19Z"/>
  <path class="cls-2" d="M19.91,497.28c0-3.97,3.22-7.19,7.19-7.19h27.59c3.97,0,7.19,3.22,7.19,7.19s-3.22,7.19-7.19,7.19h-27.59c-3.97,0-7.19-3.22-7.19-7.19Z"/>
  <path class="cls-1" d="M180.09,157.48c-3.97,0-7.19-3.22-7.19-7.19v-27.59c0-3.97,3.22-7.19,7.19-7.19s7.19,3.22,7.19,7.19v27.59c0,3.97-3.22,7.19-7.19,7.19Z"/>
  <path class="cls-1" d="M3.55,342.05c0-3.97,3.22-7.19,7.19-7.19h27.59c3.97,0,7.19,3.22,7.19,7.19,0,3.97-3.22,7.19-7.19,7.19H10.74c-3.97,0-7.19-3.22-7.19-7.19Z"/>
  <circle class="cls-2" cx="8.16" cy="165.47" r="7.16"/>
  <circle class="cls-1" cx="7.19" cy="137.21" r="7.19"/>
  <circle class="cls-2" cx="12.75" cy="469.86" r="7.16"/>
  <circle class="cls-1" cx="11.8" cy="444.05" r="7.19"/>
  <circle class="cls-2" cx="11.7" cy="305.01" r="7.16"/>
  <circle class="cls-2" cx="68.45" cy="305.01" r="7.16"/>
  <circle class="cls-1" cx="39.63" cy="306.17" r="7.19"/>
  <circle class="cls-2" cx="128.15" cy="299.03" r="7.16"/>
  <circle class="cls-1" cx="127.64" cy="328.25" r="7.19"/>
  <circle class="cls-2" cx="188.2" cy="381.92" r="7.16"/>
  <circle class="cls-1" cx="187.69" cy="411.14" r="7.19"/>
  <circle class="cls-2" cx="128.15" cy="106.9" r="7.16"/>
  <circle class="cls-2" cx="128.15" cy="163.65" r="7.16"/>
  <circle class="cls-1" cx="127.64" cy="136.2" r="7.19"/>
  <circle class="cls-2" cx="68.45" cy="135.27" r="7.16"/>
  <circle class="cls-1" cx="67.71" cy="106.89" r="7.19"/>
  <path class="cls-1" d="M37.45,213.89h0c0,3.19,2.08,6.05,5.15,6.89,8.56,2.34,14.79,10.38,14.35,19.77-.47,9.93-8.64,18.1-18.57,18.57-9.38.44-17.42-5.79-19.76-14.35-.84-3.07-3.7-5.15-6.89-5.15h0c-4.73,0-8.21,4.5-6.95,9.06,4.3,15.48,19.33,26.54,36.54,24.62,15.55-1.73,28.07-14.25,29.8-29.8,1.92-17.21-9.14-32.24-24.62-36.54-4.56-1.27-9.06,2.22-9.06,6.95Z"/>
  <path class="cls-1" d="M127.66,34.3h0c3.19,0,6.05-2.08,6.89-5.15,2.34-8.56,10.38-14.79,19.77-14.35,9.93.47,18.1,8.64,18.57,18.57.44,9.38-5.79,17.42-14.35,19.76-3.07.84-5.15,3.7-5.15,6.89h0c0,4.73,4.5,8.21,9.06,6.95,15.48-4.3,26.54-19.33,24.62-36.54-1.73-15.55-14.25-28.07-29.8-29.8-17.21-1.92-32.24,9.14-36.54,24.62-1.27,4.56,2.22,9.06,6.95,9.06Z"/>
</svg>