<?xml version="1.0" encoding="UTF-8"?>
<svg id="Calque_1" data-name="Calque 1" xmlns="http://www.w3.org/2000/svg" viewBox="0 0 68.52 103.9">
  <defs>
    <style>
      .cls-1 {
        fill: #ab2c38;
      }

      .cls-2 {
        fill: #73acd1;
      }
    </style>
  </defs>
  <path class="cls-2" d="M37.45,96.72c0-3.26-2.17-6.19-5.34-6.94-10.16-2.42-17.74-11.57-17.74-22.45v-24.62c0-3.94-3.03-7.37-6.97-7.48C3.34,35.09,0,38.36,0,42.4v24.92c0,17.57,12.16,32.35,28.51,36.37,4.54,1.12,8.94-2.3,8.94-6.97h0Z"/>
  <path class="cls-1" d="M31.22,61.27c0-3.25,2.16-6.17,5.32-6.92,10.12-2.41,17.67-11.52,17.67-22.37V7.46c0-3.92,3.02-7.34,6.94-7.46,4.05-.12,7.38,3.13,7.38,7.16v24.83c0,17.5-12.11,32.23-28.4,36.23-4.53,1.11-8.91-2.29-8.91-6.95h0Z"/>
</svg>