<?xml version="1.0" encoding="UTF-8"?>
<svg id="Calque_1" data-name="Calque 1" xmlns="http://www.w3.org/2000/svg" viewBox="0 0 74.91 126.45">
  <defs>
    <style>
      .cls-1 {
        fill: #ab2c38;
      }

      .cls-2 {
        fill: #73acd1;
      }
    </style>
  </defs>
  <path class="cls-1" d="M37.96,119.29c0-3.25-2.16-6.17-5.32-6.92-10.12-2.41-17.67-11.52-17.67-22.37v-24.53c0-3.92-3.02-7.34-6.94-7.46-4.05-.12-7.38,3.13-7.38,7.16v24.83c0,17.5,12.11,32.23,28.4,36.23,4.53,1.11,8.91-2.29,8.91-6.95h0Z"/>
  <path class="cls-2" d="M41,8.3c0,3.26,2.21,6.05,5.34,6.94,8.18,2.33,14.18,9.87,14.18,18.78,0,8.91-6,16.45-14.18,18.78-3.13.89-5.34,3.68-5.34,6.94h0c0,4.77,4.56,8.21,9.16,6.92,14.26-4,24.74-17.12,24.74-32.64,0-15.52-10.48-28.63-24.74-32.64-4.59-1.29-9.16,2.15-9.16,6.92h0Z"/>
  <circle class="cls-1" cx="7.7" cy="7.16" r="7.16"/>
  <circle class="cls-2" cx="7.19" cy="36.37" r="7.19"/>
  <circle class="cls-1" cx="67.75" cy="90.05" r="7.16"/>
  <circle class="cls-2" cx="67.24" cy="119.27" r="7.19"/>
</svg>