<?xml version="1.0" encoding="UTF-8"?>
<svg id="Calque_1" data-name="Calque 1" xmlns="http://www.w3.org/2000/svg" viewBox="0 0 69.49 98.74">
  <defs>
    <style>
      .cls-1 {
        fill: #73acd1;
      }
    </style>
  </defs>
  <path class="cls-1" d="M0,91.55c0-3.97,3.22-7.19,7.19-7.19h27.59c3.97,0,7.19,3.22,7.19,7.19,0,3.97-3.22,7.19-7.19,7.19H7.19c-3.97,0-7.19-3.22-7.19-7.19Z"/>
  <path class="cls-1" d="M62.28,32.93h0c-3.19,0-6.05,2.08-6.89,5.15-2.34,8.56-10.38,14.79-19.77,14.35-9.93-.47-18.1-8.64-18.57-18.57-.44-9.38,5.79-17.42,14.35-19.76,3.07-.84,5.15-3.7,5.15-6.89h0c0-4.73-4.5-8.21-9.06-6.95C12.02,4.56.97,19.59,2.89,36.8c1.73,15.55,14.25,28.07,29.8,29.8,17.21,1.92,32.24-9.14,36.54-24.62,1.27-4.56-2.22-9.06-6.95-9.06Z"/>
</svg>