<?xml version="1.0" encoding="UTF-8"?>
<svg id="Calque_1" data-name="Calque 1" xmlns="http://www.w3.org/2000/svg" viewBox="0 0 69.01 98.63">
  <defs>
    <style>
      .cls-1 {
        fill: #ab2c38;
      }

      .cls-2 {
        fill: #73acd1;
      }
    </style>
  </defs>
  <path class="cls-1" d="M7.16,37.31c3.25,0,6.17-2.16,6.92-5.32,2.41-10.12,11.52-17.67,22.37-17.67h24.53c3.92,0,7.34-3.02,7.46-6.94C68.55,3.32,65.3,0,61.27,0h-24.83C18.94,0,4.22,12.11.21,28.4c-1.11,4.53,2.29,8.91,6.95,8.91h0Z"/>
  <path class="cls-2" d="M7.5,98.63c-3.97,0-7.19-3.22-7.19-7.19v-27.59c0-3.97,3.22-7.19,7.19-7.19s7.19,3.22,7.19,7.19v27.59c0,3.97-3.22,7.19-7.19,7.19Z"/>
  <circle class="cls-1" cx="61.27" cy="64.91" r="7.16"/>
  <circle class="cls-2" cx="61.82" cy="91.45" r="7.19"/>
  <circle class="cls-2" cx="61.82" cy="37.56" r="7.19"/>
</svg>