<?xml version="1.0" encoding="UTF-8"?>
<svg id="Calque_1" data-name="Calque 1" xmlns="http://www.w3.org/2000/svg" viewBox="0 0 69.61 154.92">
  <defs>
    <style>
      .cls-1 {
        fill: #ab2c38;
      }

      .cls-2 {
        fill: #73acd1;
      }
    </style>
  </defs>
  <path class="cls-1" d="M7.19,154.92c3.26,0,6.19-2.17,6.94-5.34,2.42-10.16,11.57-17.74,22.45-17.74h24.62c3.94,0,7.37-3.03,7.48-6.97.12-4.07-3.14-7.41-7.18-7.41h-24.92c-17.57,0-32.35,12.16-36.37,28.51-1.12,4.54,2.3,8.94,6.97,8.94h0Z"/>
  <path class="cls-2" d="M33.94,67.79C15.25,67.79.04,52.58.04,33.89S15.25,0,33.94,0s33.9,15.2,33.9,33.89-15.21,33.9-33.9,33.9ZM33.94,14.37c-10.76,0-19.52,8.76-19.52,19.52s8.76,19.52,19.52,19.52,19.52-8.76,19.52-19.52-8.76-19.52-19.52-19.52Z"/>
  <circle class="cls-1" cx="62.42" cy="95.88" r="7.19"/>
  <circle class="cls-2" cx="34.35" cy="95.88" r="7.19"/>
</svg>