<?xml version="1.0" encoding="UTF-8"?>
<svg id="Calque_1" data-name="Calque 1" xmlns="http://www.w3.org/2000/svg" viewBox="0 0 66.82 66.82">
  <defs>
    <style>
      .cls-1 {
        fill: #73acd1;
      }
    </style>
  </defs>
  <path class="cls-1" d="M7.21,33.9h0c3.19,0,6.05-2.08,6.89-5.15,2.34-8.56,10.38-14.79,19.77-14.35,9.93.47,18.1,8.64,18.57,18.57.44,9.38-5.79,17.42-14.35,19.76-3.07.84-5.15,3.7-5.15,6.89h0c0,4.73,4.5,8.21,9.06,6.95,15.48-4.3,26.54-19.33,24.62-36.54C64.87,14.47,52.35,1.95,36.8.22,19.59-1.7,4.56,9.35.26,24.83c-1.27,4.56,2.22,9.06,6.95,9.06Z"/>
</svg>