<?xml version="1.0" encoding="UTF-8"?>
<svg id="Calque_1" data-name="Calque 1" xmlns="http://www.w3.org/2000/svg" viewBox="0 0 74.9 69.56">
  <defs>
    <style>
      .cls-1 {
        fill: #ab2c38;
      }

      .cls-2 {
        fill: #73acd1;
      }
    </style>
  </defs>
  <path class="cls-1" d="M67.46,69.29c-3.95,0-7.16-3.21-7.16-7.16v-24.83c0-12.68-10.31-22.99-22.99-22.99s-22.99,10.31-22.99,22.99v24.83c0,3.95-3.2,7.16-7.16,7.16s-7.16-3.21-7.16-7.16v-24.83C0,16.74,16.74,0,37.31,0s37.31,16.74,37.31,37.31v24.83c0,3.95-3.2,7.16-7.16,7.16Z"/>
  <path class="cls-2" d="M67.72,69.56c-3.97,0-7.19-3.22-7.19-7.19v-27.59c0-3.97,3.22-7.19,7.19-7.19s7.19,3.22,7.19,7.19v27.59c0,3.97-3.22,7.19-7.19,7.19Z"/>
</svg>