<?xml version="1.0" encoding="UTF-8"?>
<svg id="Calque_1" data-name="Calque 1" xmlns="http://www.w3.org/2000/svg" viewBox="0 0 82.57 84.9">
  <defs>
    <style>
      .cls-1 {
        fill: #ab2c38;
      }

      .cls-2 {
        fill: #73acd1;
      }
    </style>
  </defs>
  <g>
    <path class="cls-2" d="M16.1,77.15c-3.97,0-7.19-3.22-7.19-7.19v-27.59c0-3.97,3.22-7.19,7.19-7.19s7.19,3.22,7.19,7.19v27.59c0,3.97-3.22,7.19-7.19,7.19Z"/>
    <circle class="cls-1" cx="16.1" cy="14.91" r="7.16"/>
  </g>
  <g>
    <path class="cls-1" d="M72.19,69.97c0-3.26-2.17-6.19-5.34-6.94-10.16-2.42-17.74-11.57-17.74-22.45V15.95c0-3.94-3.03-7.37-6.97-7.48-4.07-.12-7.41,3.14-7.41,7.18v24.92c0,17.57,12.16,32.35,28.51,36.37,4.54,1.12,8.94-2.3,8.94-6.97h0Z"/>
    <circle class="cls-2" cx="65.01" cy="32.97" r="7.19"/>
  </g>
</svg>