<?xml version="1.0" encoding="UTF-8"?>
<svg id="Calque_1" data-name="Calque 1" xmlns="http://www.w3.org/2000/svg" viewBox="0 0 70.04 131.56">
  <defs>
    <style>
      .cls-1 {
        fill: #ab2c38;
      }

      .cls-2 {
        fill: #73acd1;
      }
    </style>
  </defs>
  <path class="cls-2" d="M9.3,33.9c3.26,0,6.05-2.21,6.94-5.34,2.33-8.18,9.87-14.18,18.78-14.18,8.91,0,16.45,6,18.78,14.18.89,3.13,3.68,5.34,6.94,5.34h0c4.77,0,8.21-4.56,6.92-9.16C63.66,10.48,50.54,0,35.02,0S6.39,10.48,2.38,24.74c-1.29,4.59,2.15,9.16,6.92,9.16h0Z"/>
  <path class="cls-2" d="M62.86,105.93c-3.97,0-7.19-3.22-7.19-7.19v-27.59c0-3.97,3.22-7.19,7.19-7.19s7.19,3.22,7.19,7.19v27.59c0,3.97-3.22,7.19-7.19,7.19Z"/>
  <path class="cls-1" d="M15.3,124.38c0-3.97,3.22-7.19,7.19-7.19h27.59c3.97,0,7.19,3.22,7.19,7.19s-3.22,7.19-7.19,7.19h-27.59c-3.97,0-7.19-3.22-7.19-7.19Z"/>
  <circle class="cls-1" cx="8.14" cy="96.95" r="7.16"/>
  <circle class="cls-2" cx="7.19" cy="71.15" r="7.19"/>
</svg>