<?xml version="1.0" encoding="UTF-8"?>
<svg id="Calque_1" data-name="Calque 1" xmlns="http://www.w3.org/2000/svg" viewBox="0 0 74.9 96.62">
  <defs>
    <style>
      .cls-1 {
        fill: #ab2c38;
      }

      .cls-2 {
        fill: #73acd1;
      }
    </style>
  </defs>
  <path class="cls-1" d="M7.19,0c3.97,0,7.19,3.22,7.19,7.19v24.92c0,12.72,10.35,23.08,23.08,23.08,12.72,0,23.08-10.35,23.08-23.08V7.19c0-3.97,3.22-7.19,7.19-7.19,3.97,0,7.19,3.22,7.19,7.19v24.92c0,20.65-16.8,37.45-37.45,37.45C16.8,69.56,0,52.76,0,32.11V7.19C0,3.22,3.22,0,7.19,0Z"/>
  <circle class="cls-1" cx="50.12" cy="89.43" r="7.19"/>
  <circle class="cls-2" cx="22.04" cy="89.43" r="7.19"/>
</svg>