<?xml version="1.0" encoding="UTF-8"?>
<svg id="Calque_1" data-name="Calque 1" xmlns="http://www.w3.org/2000/svg" viewBox="0 0 66.82 66.82">
  <defs>
    <style>
      .cls-1 {
        fill: #73acd1;
      }
    </style>
  </defs>
  <path class="cls-1" d="M32.93,7.21h0c0,3.19,2.08,6.05,5.15,6.89,8.56,2.34,14.79,10.38,14.35,19.77-.47,9.93-8.64,18.1-18.57,18.57-9.38.44-17.42-5.79-19.76-14.35-.84-3.07-3.7-5.15-6.89-5.15h0c-4.73,0-8.21,4.5-6.95,9.06,4.3,15.48,19.33,26.54,36.54,24.62,15.55-1.73,28.07-14.25,29.8-29.8C68.53,19.59,57.47,4.56,41.99.26c-4.56-1.27-9.06,2.22-9.06,6.95Z"/>
</svg>