<?xml version="1.0" encoding="UTF-8"?>
<svg id="Calque_1" data-name="Calque 1" xmlns="http://www.w3.org/2000/svg" viewBox="0 0 71.1 130.19">
  <defs>
    <style>
      .cls-1 {
        fill: #ab2c38;
      }

      .cls-2 {
        fill: #73acd1;
      }
    </style>
  </defs>
  <path class="cls-1" d="M7.19,92.74c3.26,0,6.19,2.17,6.94,5.34,2.42,10.16,11.57,17.74,22.45,17.74h24.62c3.94,0,7.37,3.03,7.48,6.97.12,4.07-3.14,7.41-7.18,7.41h-24.92c-17.57,0-32.35-12.16-36.37-28.51-1.12-4.54,2.3-8.94,6.97-8.94h0Z"/>
  <path class="cls-2" d="M10.36,33.9c3.26,0,6.05-2.21,6.94-5.34,2.33-8.18,9.87-14.18,18.78-14.18,8.91,0,16.45,6,18.78,14.18.89,3.13,3.68,5.34,6.94,5.34h0c4.77,0,8.21-4.56,6.92-9.16C64.71,10.48,51.6,0,36.08,0,20.56,0,7.45,10.48,3.44,24.74c-1.29,4.59,2.15,9.16,6.92,9.16h0Z"/>
  <path class="cls-2" d="M63.92,97.07c-3.97,0-7.19-3.22-7.19-7.19v-27.59c0-3.97,3.22-7.19,7.19-7.19s7.19,3.22,7.19,7.19v27.59c0,3.97-3.22,7.19-7.19,7.19Z"/>
  <circle class="cls-2" cx="8.24" cy="71.15" r="7.19"/>
</svg>