<?xml version="1.0" encoding="UTF-8"?>
<svg id="Calque_1" data-name="Calque 1" xmlns="http://www.w3.org/2000/svg" viewBox="0 0 71.07 64.95">
  <defs>
    <style>
      .cls-1 {
        fill: #ab2c38;
      }

      .cls-2 {
        fill: #73acd1;
      }
    </style>
  </defs>
  <path class="cls-1" d="M9.92,33.77c3.25,0,6.02-2.2,6.91-5.32,2.32-8.15,9.83-14.13,18.71-14.13,8.88,0,16.39,5.98,18.71,14.13.89,3.12,3.67,5.32,6.91,5.32h0c4.75,0,8.18-4.55,6.89-9.12C64.06,10.44,51,0,35.54,0,20.08,0,7.01,10.44,3.02,24.65c-1.29,4.58,2.14,9.12,6.89,9.12h0Z"/>
  <circle class="cls-1" cx="7.16" cy="56.79" r="7.16"/>
  <circle class="cls-1" cx="63.92" cy="56.79" r="7.16"/>
  <circle class="cls-2" cx="36.39" cy="57.76" r="7.19"/>
</svg>